HIERARCHY
ROOT Hips
{
  OFFSET 53.8756 95.61 -15.361
  CHANNELS 6 Xposition Yposition Zposition Zrotation Xrotation Yrotation
  JOINT spine
  {
    OFFSET 0 8.13249 0.467659
    CHANNELS 3 Zrotation Xrotation Yrotation
    JOINT spine1
    {
      OFFSET 0 10.3498 0
      CHANNELS 3 Zrotation Xrotation Yrotation
      JOINT spine2
      {
        OFFSET 0 9.91699 0
        CHANNELS 3 Zrotation Xrotation Yrotation
        JOINT Neck
        {
          OFFSET 0 25.461 1.2139
          CHANNELS 3 Zrotation Xrotation Yrotation
          JOINT Head
          {
            OFFSET 0 7.69245 0
            CHANNELS 3 Zrotation Xrotation Yrotation
            End Site
            {
              OFFSET 0 18.62 -6.14063
            }
          }
        }
        JOINT RightShoulder
        {
          OFFSET -4.17575 10.7096 -0.581445
          CHANNELS 3 Zrotation Xrotation Yrotation
          JOINT RightArm
          {
            OFFSET 0 14.0466 0
            CHANNELS 3 Zrotation Xrotation Yrotation
            JOINT RightArmRoll
            {
              OFFSET 0 7.09098 0
              CHANNELS 3 Zrotation Xrotation Yrotation
              JOINT RightForeArm
              {
                OFFSET 0 20.6535 0
                CHANNELS 3 Zrotation Xrotation Yrotation
                JOINT RightForeArmRoll
                {
                  OFFSET 0 7.95718 0
                  CHANNELS 3 Zrotation Xrotation Yrotation
                  JOINT RightHand
                  {
                    OFFSET 0 15.9683 0
                    CHANNELS 3 Zrotation Xrotation Yrotation
                    End Site
                    {
                      OFFSET 0 0 0
                    }
                  }
                }
              }
            }
          }
        }
        JOINT LeftShoulder
        {
          OFFSET 4.17575 10.7096 -0.581445
          CHANNELS 3 Zrotation Xrotation Yrotation
          JOINT LeftArm
          {
            OFFSET 0 14.0466 0
            CHANNELS 3 Zrotation Xrotation Yrotation
            JOINT LeftArmRoll
            {
              OFFSET 0 7.09099 0
              CHANNELS 3 Zrotation Xrotation Yrotation
              JOINT LeftForeArm
              {
                OFFSET 0 20.6535 0
                CHANNELS 3 Zrotation Xrotation Yrotation
                JOINT LeftForeArmRoll
                {
                  OFFSET 0 7.95718 0
                  CHANNELS 3 Zrotation Xrotation Yrotation
                  JOINT LeftHand
                  {
                    OFFSET 0 15.9683 0
                    CHANNELS 3 Zrotation Xrotation Yrotation
                    End Site
                    {
                      OFFSET 0 0 0
                    }
                  }
                }
              }
            }
          }
        }
      }
    }
  }
  JOINT RightUpLeg
  {
    OFFSET -7.20834 -1.32182 -1.10884
    CHANNELS 3 Zrotation Xrotation Yrotation
    JOINT RightUpLegRoll
    {
      OFFSET 0 18.7238 0
      CHANNELS 3 Zrotation Xrotation Yrotation
      JOINT RightLeg
      {
        OFFSET 0 -23.1866 0
        CHANNELS 3 Zrotation Xrotation Yrotation
        JOINT RightLegRoll
        {
          OFFSET 0 23.2624 0
          CHANNELS 3 Zrotation Xrotation Yrotation
          JOINT RightFoot
          {
            OFFSET 0 19.3621 0
            CHANNELS 3 Zrotation Xrotation Yrotation
            JOINT RightToeBase
            {
              OFFSET 0 16.1857 0
              CHANNELS 3 Zrotation Xrotation Yrotation
              End Site
              {
                OFFSET 0.00686052 7.83863 -0.903522
              }
            }
          }
        }
      }
    }
  }
  JOINT LeftUpLeg
  {
    OFFSET 7.20834 -1.32182 -1.10884
    CHANNELS 3 Zrotation Xrotation Yrotation
    JOINT LeftUpLegRoll
    {
      OFFSET 0 18.7239 0
      CHANNELS 3 Zrotation Xrotation Yrotation
      JOINT LeftLeg
      {
        OFFSET 0 23.1865 0
        CHANNELS 3 Zrotation Xrotation Yrotation
        JOINT LeftLegRoll
        {
          OFFSET 0 23.4775 0
          CHANNELS 3 Zrotation Xrotation Yrotation
          JOINT LeftFoot
          {
            OFFSET 0 19.147 0
            CHANNELS 3 Zrotation Xrotation Yrotation
            JOINT LeftToeBase
            {
              OFFSET 0 16.1857 0
              CHANNELS 3 Zrotation Xrotation Yrotation
              End Site
              {
                OFFSET -0.0307459 7.83863 -0.903522
              }
            }
          }
        }
      }
    }
  }
}
MOTION
Frames: 6
Frame Time: 0.00208333
49.8556 95.8871 -7.47019 -2.41054 -2.93495 9.64338 0.446436 -0.41603 -0.662785 0.895715 3.16543 -1.38014 0.913442 4.81018 -1.39648 36.7108 8.93836 -13.6623 -16.4023 -3.45036 -7.12665 65.4958 -18.7686 -11.1379 69.797 40.7076 -23.4784 6.17724e-007 7.33685e-009 -3.16176e-006 -169.783 53.2993 143.359 -5.0621e-006 -2.60317e-006 -3 8.02907 -4.95145 0.697679 -38.3506 1.97394 -4.6309 -153.734 81.6261 61.9269 -1.36154e-006 -1.73665e-006 6.79893e-006 -5.46124 51.4729 5.47369 7.28728e-006 -2.78351e-006 3.00012 -8.02906 -4.95148 -0.697665 177.124 6.83464 1.2576 180 7.016e-015 179.185 177.763 8.58456 179.81 -1.97881e-006 7.56209e-007 -0.0050324 -14.3242 66.9551 18.7784 8.13649 25.2327 -3.48774 -174.378 -3.84606 -2.15373 4.54188e-006 -4.6773e-006 -1.07283 -2.02724 -14.6432 0.129802 3.39204e-006 -5.44247e-006 -0.512554 29.8621 76.6141 -31.4229 -8.18183 25.9529 2.50852 
49.8726 95.8867 -7.4753 -2.43417 -2.94536 9.62366 0.442666 -0.404513 -0.671251 0.888345 3.18844 -1.39671 0.906268 4.8332 -1.41294 37.0787 8.76088 -13.6401 -16.7337 -3.33214 -7.09692 65.7304 -18.9284 -11.2054 69.556 40.5162 -23.5496 6.17724e-007 7.33684e-009 -3.16176e-006 -169.789 53.0402 143.109 -5.0621e-006 -2.60317e-006 -3 8.02907 -4.95145 0.697679 -38.0471 2.10376 -4.80411 -156.994 82.1641 64.9391 -1.36154e-006 -1.73665e-006 6.79893e-006 -5.32353 50.314 5.33546 7.28728e-006 -2.78351e-006 3.00012 -8.02906 -4.95148 -0.697665 177.147 6.80743 1.2444 180 7.016e-015 179.185 177.764 8.54156 179.811 -1.97881e-006 7.56209e-007 -0.00569396 -14.3224 66.9393 18.7677 8.13649 25.2327 -3.48774 -174.359 -3.8503 -2.16911 4.54188e-006 -4.6773e-006 -1.0721 -2.0323 -14.6553 0.129344 3.39204e-006 -5.44247e-006 -0.512458 29.875 76.6201 -31.4363 -8.18184 25.9536 2.50746 
49.8655 95.8898 -7.4758 -2.45871 -2.95458 9.60645 0.439627 -0.3932 -0.679675 0.882438 3.21104 -1.41328 0.90056 4.85579 -1.42944 37.4378 8.58002 -13.616 -17.0598 -3.21006 -7.06752 65.9568 -19.0898 -11.2743 69.3247 40.3289 -23.6266 6.17724e-007 7.33684e-009 -3.16176e-006 -169.793 52.7847 142.858 -5.0621e-006 -2.60317e-006 -3 8.02907 -4.95145 0.697679 -37.7415 2.2328 -4.97851 -160.742 82.6687 68.4368 -1.36154e-006 -1.73665e-006 6.79893e-006 -5.17322 49.1404 5.19588 7.28728e-006 -2.78351e-006 3.00012 -8.02906 -4.95148 -0.697665 177.171 6.78121 1.23067 180 7.016e-015 179.184 177.765 8.49841 179.811 -1.97881e-006 7.56209e-007 -0.00634528 -14.3216 66.9239 18.7572 8.13649 25.2327 -3.48774 -174.338 -3.8523 -2.18458 4.54188e-006 -4.6773e-006 -1.0713 -2.03696 -14.668 0.128975 3.39204e-006 -5.44247e-006 -0.512386 29.8889 76.6265 -31.4508 -8.18184 25.9541 2.50668 
49.8862 95.8954 -7.47856 -2.48431 -2.9624 9.59169 0.437547 -0.382201 -0.68802 0.878455 3.233 -1.42981 0.896776 4.87775 -1.44593 37.7852 8.39649 -13.5898 -17.3784 -3.08433 -7.03849 66.1725 -19.2531 -11.3448 69.1051 40.1457 -23.7106 6.17724e-007 7.33685e-009 -3.16176e-006 -169.796 52.5328 142.608 -5.0621e-006 -2.60317e-006 -3 8.02907 -4.95145 0.697679 -37.4347 2.36164 -5.15446 -165.029 83.1318 72.4704 -1.36154e-006 -1.73665e-006 6.79893e-006 -5.00918 47.9532 5.05508 7.28728e-006 -2.78351e-006 3.00011 -8.02906 -4.95148 -0.697665 177.196 6.7564 1.21641 180 7.016e-015 179.183 177.766 8.4554 179.812 -1.97881e-006 7.56209e-007 -0.00698161 -14.3219 66.909 18.747 8.13649 25.2327 -3.48774 -174.317 -3.85176 -2.20007 4.54188e-006 -4.6773e-006 -1.07043 -2.04114 -14.6816 0.128714 3.39204e-006 -5.44247e-006 -0.512343 29.9042 76.6335 -31.4666 -8.18182 25.9543 2.5062 
49.8914 95.8984 -7.4884 -2.51111 -2.96858 9.57933 0.436658 -0.371627 -0.696248 0.876852 3.25409 -1.44626 0.895375 4.89883 -1.46237 38.118 8.21099 -13.5614 -17.6873 -2.95515 -7.00988 66.3752 -19.4185 -11.4173 68.8993 39.9667 -23.8031 6.17724e-007 7.33684e-009 -3.16176e-006 -169.799 52.2848 142.357 -5.0621e-006 -2.60317e-006 -3 8.02907 -4.95145 0.697679 -37.128 2.49086 -5.33235 -169.892 83.5446 77.0761 -1.36154e-006 -1.73665e-006 6.79893e-006 -4.8302 46.7537 4.91319 7.28728e-006 -2.78351e-006 3.00011 -8.02906 -4.95148 -0.697665 177.221 6.73339 1.20157 180 7.01599e-015 179.182 177.768 8.41275 179.813 -1.97881e-006 7.56209e-007 -0.00759823 -14.3235 66.8947 18.7373 8.13649 25.2327 -3.48774 -174.295 -3.8484 -2.21549 4.54188e-006 -4.6773e-006 -1.06947 -2.04478 -14.6961 0.128575 3.39204e-006 -5.44247e-006 -0.512331 29.9208 76.641 -31.4839 -8.18178 25.9544 2.50606 
49.909 95.894 -7.49086 -2.53926 -2.9729 9.56935 0.437188 -0.361588 -0.704321 0.878088 3.27409 -1.46256 0.896814 4.91882 -1.47871 38.4336 8.02421 -13.5305 -17.9845 -2.82273 -6.98174 66.5624 -19.5861 -11.4923 68.7095 39.7922 -23.9053 6.17724e-007 7.33685e-009 -3.16176e-006 -169.799 52.0409 142.105 -5.0621e-006 -2.60317e-006 -3 8.02907 -4.95145 0.697679 -36.8224 2.62103 -5.51253 -175.34 83.8977 82.2607 -1.36154e-006 -1.73665e-006 6.79893e-006 -4.63508 45.5433 4.77025 7.28728e-006 -2.78351e-006 3.00011 -8.02906 -4.95148 -0.697665 177.247 6.71259 1.18613 180 7.01599e-015 179.181 177.769 8.37079 179.813 -1.97881e-006 7.56209e-007 -0.00819037 -14.3268 66.8814 18.7281 8.13649 25.2327 -3.48774 -174.272 -3.84191 -2.23077 4.54188e-006 -4.6773e-006 -1.06843 -2.04781 -14.7115 0.128575 3.39204e-006 -5.44247e-006 -0.512354 29.9392 76.6493 -31.503 -8.18173 25.9541 2.50626 
